<svg width="35" height="32" viewBox="0 0 35 32" fill="none" xmlns="http://www.w3.org/2000/svg">
<g clip-path="url(#clip0_726_24)">
<path d="M36.3363 8.875C36.9328 8.875 37.421 8.47422 37.421 7.98438V5.01562C37.421 4.52578 36.9328 4.125 36.3363 4.125H34.5284V0.5625C34.5284 -1.4043 32.5849 -3 30.1895 -3H1.26368C-1.13174 -3 -3.0752 -1.4043 -3.0752 0.5625V31.4375C-3.0752 33.4043 -1.13174 35 1.26368 35H30.1895C32.5849 35 34.5284 33.4043 34.5284 31.4375V27.875H36.3363C36.9328 27.875 37.421 27.4742 37.421 26.9844V24.0156C37.421 23.5258 36.9328 23.125 36.3363 23.125H34.5284V18.375H36.3363C36.9328 18.375 37.421 17.9742 37.421 17.4844V14.5156C37.421 14.0258 36.9328 13.625 36.3363 13.625H34.5284V8.875H36.3363ZM15.7266 6.5C18.9175 6.5 21.5118 8.63008 21.5118 11.25C21.5118 13.8699 18.9175 16 15.7266 16C12.5357 16 9.94143 13.8699 9.94143 11.25C9.94143 8.63008 12.5357 6.5 15.7266 6.5ZM25.8506 24.075C25.8506 24.8617 24.9467 25.5 23.8258 25.5H7.62736C6.50649 25.5 5.60256 24.8617 5.60256 24.075V22.65C5.60256 20.2898 8.32339 18.375 11.677 18.375H12.1289C13.2408 18.7535 14.4521 18.9688 15.7266 18.9688C17.0011 18.9688 18.2215 18.7535 19.3242 18.375H19.7762C23.1298 18.375 25.8506 20.2898 25.8506 22.65V24.075Z" fill="#316099"/>
</g>
<defs>
<clipPath id="clip0_726_24">
<rect width="40.4962" height="38" fill="white" transform="translate(-3.0752 -3)"/>
</clipPath>
</defs>
</svg>
